<svg xmlns="http://www.w3.org/2000/svg" viewBox="0 0 512 512" role="img" aria-labelledby="title desc">
  <title id="title">Logo El Ofertón del Gatito</title>
  <desc id="desc">Cara de gatito digitalizada en estilo mascota de marca.</desc>
  <defs>
    <radialGradient id="bg" cx="50%" cy="44%" r="58%">
      <stop offset="0%" stop-color="#fffdf7"/>
      <stop offset="100%" stop-color="#fff0d8"/>
    </radialGradient>
    <linearGradient id="fur" x1="120" y1="130" x2="390" y2="390" gradientUnits="userSpaceOnUse">
      <stop offset="0%" stop-color="#d99a58"/>
      <stop offset="52%" stop-color="#f6d9b5"/>
      <stop offset="100%" stop-color="#ffffff"/>
    </linearGradient>
    <filter id="shadow" x="-20%" y="-20%" width="140%" height="140%">
      <feDropShadow dx="0" dy="12" stdDeviation="12" flood-color="#4b2d1c" flood-opacity="0.16"/>
    </filter>
  </defs>

  <circle cx="256" cy="256" r="238" fill="url(#bg)" stroke="#3b2115" stroke-width="14"/>

  <g filter="url(#shadow)">
    <path d="M122 218C104 158 111 92 136 62c39 15 72 49 93 91h54c21-42 54-76 93-91 25 30 32 96 14 156 31 35 47 79 41 125-11 83-84 132-175 132S92 426 81 343c-6-46 10-90 41-125Z" fill="url(#fur)" stroke="#3b2115" stroke-width="9" stroke-linejoin="round"/>

    <path d="M140 84c30 17 53 47 67 86-27-9-51-14-75-15-3-25 0-51 8-71Z" fill="#f7b079"/>
    <path d="M372 84c-30 17-53 47-67 86 27-9 51-14 75-15 3-25 0-51-8-71Z" fill="#f7b079"/>
    <path d="M151 107c19 16 34 35 44 59-17-5-33-8-49-9-3-17-1-35 5-50Z" fill="#ffd8c4"/>
    <path d="M361 107c-19 16-34 35-44 59 17-5 33-8 49-9 3-17 1-35-5-50Z" fill="#ffd8c4"/>

    <path d="M174 151c25-20 55-31 89-31 31 0 58 9 82 26-31 4-55 18-73 40-24-23-56-34-98-35Z" fill="#8a562c" opacity="0.88"/>
    <path d="M215 122c9 28 10 54 4 78" fill="none" stroke="#3b2115" stroke-width="8" stroke-linecap="round" opacity="0.55"/>
    <path d="M292 121c-9 29-9 56-2 81" fill="none" stroke="#3b2115" stroke-width="8" stroke-linecap="round" opacity="0.55"/>

    <ellipse cx="180" cy="277" rx="45" ry="38" fill="#ffffff"/>
    <ellipse cx="332" cy="277" rx="45" ry="38" fill="#ffffff"/>
    <ellipse cx="180" cy="277" rx="20" ry="26" fill="#7fb24a"/>
    <ellipse cx="332" cy="277" rx="20" ry="26" fill="#7fb24a"/>
    <circle cx="180" cy="277" r="11" fill="#24130d"/>
    <circle cx="332" cy="277" r="11" fill="#24130d"/>
    <circle cx="171" cy="265" r="7" fill="#ffffff"/>
    <circle cx="323" cy="265" r="7" fill="#ffffff"/>

    <path d="M239 322c7-7 27-7 34 0 1 12-8 22-17 22s-18-10-17-22Z" fill="#f6a1a8" stroke="#3b2115" stroke-width="6" stroke-linejoin="round"/>
    <path d="M256 343v22" fill="none" stroke="#3b2115" stroke-width="7" stroke-linecap="round"/>
    <path d="M256 365c-12 16-34 19-50 7" fill="none" stroke="#3b2115" stroke-width="7" stroke-linecap="round"/>
    <path d="M256 365c12 16 34 19 50 7" fill="none" stroke="#3b2115" stroke-width="7" stroke-linecap="round"/>

    <path d="M133 318c-39-11-70-12-98-4" fill="none" stroke="#3b2115" stroke-width="7" stroke-linecap="round"/>
    <path d="M135 343c-36 4-65 16-88 34" fill="none" stroke="#3b2115" stroke-width="7" stroke-linecap="round"/>
    <path d="M379 318c39-11 70-12 98-4" fill="none" stroke="#3b2115" stroke-width="7" stroke-linecap="round"/>
    <path d="M377 343c36 4 65 16 88 34" fill="none" stroke="#3b2115" stroke-width="7" stroke-linecap="round"/>
  </g>
</svg>
